# xmcd
#
# Track frame offsets:
# 182
# 2315
# 19602
# 35102
# 49522
# 61560
# 78082
# 101607
# 114357
# 129015
# 138860
# 151867
# 168760
# 185932
#
# Disc length: 2718 seconds
#
#
# Revision: 0
# Processed by: cddbd v1.5PL3 Copyright (c) Steve Scherf et al.
# Submitted via: FreeRIP 2.70 
#
DISCID=950a9c0e
DTITLE=Michael Fix - Tantalise
DYEAR=1900
DGENRE=Country
TTITLE0=Testing
TTITLE1=Here We Go!
TTITLE2=First Light
TTITLE3=New Day
TTITLE4=Through a Childs Eyes
TTITLE5=Free Spirit
TTITLE6=River Deep, Mountain High
TTITLE7=Lucky
TTITLE8=Hit the Road, Jack
TTITLE9=Jerrys Breakdown
TTITLE10=Besame Mucho
TTITLE11=Tantalise
TTITLE12=Rave up
TTITLE13=Toccata and Fugue
EXTD=
EXTT0=
EXTT1=
EXTT2=
EXTT3=
EXTT4=
EXTT5=
EXTT6=
EXTT7=
EXTT8=
EXTT9=
EXTT10=
EXTT11=
EXTT12=
EXTT13=
PLAYORDER=
